<svg width="22" height="21" viewBox="0 0 22 21" fill="none" xmlns="http://www.w3.org/2000/svg">
<rect x="1.41504" y="6.84912" width="13" height="13" rx="2" stroke="black" stroke-width="2"/>
<mask id="path-2-inside-1_163_14" fill="white">
<path d="M6.01611 3.4498C6.01611 1.79294 7.35926 0.449799 9.01611 0.449799H18.0161C19.673 0.449799 21.0161 1.79294 21.0161 3.4498V7.80991H6.01611V3.4498Z"/>
</mask>
<path d="M4.01611 3.4498C4.01611 0.688375 6.25469 -1.5502 9.01611 -1.5502H18.0161C20.7775 -1.5502 23.0161 0.688375 23.0161 3.4498H19.0161C19.0161 2.89751 18.5684 2.4498 18.0161 2.4498H9.01611C8.46383 2.4498 8.01611 2.89751 8.01611 3.4498H4.01611ZM21.0161 7.80991H6.01611H21.0161ZM4.01611 7.80991V3.4498C4.01611 0.688375 6.25469 -1.5502 9.01611 -1.5502V2.4498C8.46383 2.4498 8.01611 2.89751 8.01611 3.4498V7.80991H4.01611ZM18.0161 -1.5502C20.7775 -1.5502 23.0161 0.688375 23.0161 3.4498V7.80991H19.0161V3.4498C19.0161 2.89751 18.5684 2.4498 18.0161 2.4498V-1.5502Z" fill="black" mask="url(#path-2-inside-1_163_14)"/>
<mask id="path-4-inside-2_163_14" fill="white">
<path d="M13.4375 7.80991H21.0161V12.4498C21.0161 14.1067 19.673 15.4498 18.0161 15.4498H13.4375V7.80991Z"/>
</mask>
<path d="M13.4375 7.80991H21.0161H13.4375ZM23.0161 12.4498C23.0161 15.2112 20.7775 17.4498 18.0161 17.4498H13.4375V13.4498H18.0161C18.5684 13.4498 19.0161 13.0021 19.0161 12.4498H23.0161ZM13.4375 15.4498V7.80991V15.4498ZM23.0161 7.80991V12.4498C23.0161 15.2112 20.7775 17.4498 18.0161 17.4498V13.4498C18.5684 13.4498 19.0161 13.0021 19.0161 12.4498V7.80991H23.0161Z" fill="black" mask="url(#path-4-inside-2_163_14)"/>
</svg>
