<svg width="38" height="34" viewBox="0 0 38 34" fill="none" xmlns="http://www.w3.org/2000/svg">
<rect width="4" height="13.4578" rx="2" transform="matrix(1 0 0 -1 12.359 33.1737)" fill="black"/>
<rect x="24.8831" y="33.1809" width="4" height="13.4578" rx="2" transform="rotate(180 24.8831 33.1809)" fill="black"/>
<rect x="24.8831" y="19.7233" width="4" height="12.524" rx="2" transform="rotate(90 24.8831 19.7233)" fill="black"/>
<rect x="4.43262" y="16.8132" width="4" height="16.3677" rx="2" fill="black"/>
<rect x="29.4072" y="16.8132" width="4" height="16.3605" rx="2" fill="black"/>
<rect x="0.826782" y="16.8132" width="7.60583" height="4" rx="2" fill="black"/>
<rect x="2.82837" y="21.6476" width="4" height="26.5541" rx="2" transform="rotate(-135 2.82837 21.6476)" fill="black"/>
<rect width="7.40784" height="4" rx="2" transform="matrix(-1 0 0 1 36.8151 16.8204)" fill="black"/>
<rect width="4" height="26.6214" rx="2" transform="matrix(0.707107 -0.707107 -0.707107 -0.707107 34.817 21.6526)" fill="black"/>
<rect x="16.359" y="29.1809" width="4" height="11.9264" rx="2" transform="rotate(90 16.359 29.1809)" fill="black"/>
<rect x="33.4072" y="29.1809" width="4" height="12.5242" rx="2" transform="rotate(90 33.4072 29.1809)" fill="black"/>
</svg>
