<svg width="22" height="21" viewBox="0 0 22 21" fill="none" xmlns="http://www.w3.org/2000/svg">
<rect width="2.01038" height="10.0971" rx="1.00519" transform="matrix(-0.607491 -0.794326 0.745636 -0.666353 13.7749 14.1558)" fill="black"/>
<rect width="2.00819" height="5.51695" rx="1.00409" transform="matrix(0.607491 0.794326 -0.745636 0.666353 15.1987 0)" fill="black"/>
<rect x="14.2114" y="0.403564" width="6.73912" height="2.00586" rx="1.00293" fill="black"/>
<rect x="18.9077" y="0.403564" width="2.0428" height="7.5218" rx="1.0214" fill="black"/>
<rect x="7.36084" y="6.45496" width="6.73912" height="2.00586" rx="1.00293" fill="black"/>
<rect x="12.0571" y="6.45496" width="2.0428" height="4.27954" rx="1.0214" fill="black"/>
<rect width="2.0006" height="10.3651" rx="1.0003" transform="matrix(0.607491 0.794326 -0.745636 0.666353 8.38623 6.06787)" fill="black"/>
<rect width="2.0002" height="5.50044" rx="1.0001" transform="matrix(-0.607491 -0.794326 0.745636 -0.666353 6.28516 20.4049)" fill="black"/>
<rect x="7.38574" y="19.9818" width="6.34942" height="2.10181" rx="1.0509" transform="rotate(180 7.38574 19.9818)" fill="black"/>
<rect x="3.03564" y="19.9818" width="2.00032" height="7.79028" rx="1.00016" transform="rotate(180 3.03564 19.9818)" fill="black"/>
<rect x="14.5649" y="13.7379" width="6.34942" height="2.10181" rx="1.0509" transform="rotate(180 14.5649 13.7379)" fill="black"/>
<rect x="10.2153" y="13.7379" width="2.00032" height="4.27258" rx="1.00016" transform="rotate(180 10.2153 13.7379)" fill="black"/>
</svg>
