<svg width="24" height="22" viewBox="0 0 24 22" fill="none" xmlns="http://www.w3.org/2000/svg">
<rect x="13.6191" y="16.5806" width="3" height="13.2312" rx="1.5" transform="rotate(-129.581 13.6191 16.5806)" fill="#363232"/>
<rect x="16.3633" y="0.483063" width="3" height="6.6991" rx="1.5" transform="rotate(50.4187 16.3633 0.483063)" fill="#363232"/>
<rect x="14.2334" y="16.5464" width="6.65945" height="3" rx="1.5" transform="rotate(-145.937 14.2334 16.5464)" fill="#363232"/>
<rect x="14.6582" y="1.10056" width="8.51855" height="3" rx="1.5" fill="#363232"/>
<rect x="20.2012" y="1.10056" width="3" height="8.31848" rx="1.5" fill="#363232"/>
<rect x="10.5264" y="5.42422" width="3" height="13.2312" rx="1.5" transform="rotate(50.4187 10.5264 5.42422)" fill="#363232"/>
<rect x="7.78223" y="21.5218" width="3" height="6.6991" rx="1.5" transform="rotate(-129.581 7.78223 21.5218)" fill="#363232"/>
<rect x="9.90234" y="5.44528" width="6.65945" height="3" rx="1.5" transform="rotate(34.0626 9.90234 5.44528)" fill="#363232"/>
<rect x="9.4873" y="20.9043" width="8.51855" height="3" rx="1.5" transform="rotate(180 9.4873 20.9043)" fill="#363232"/>
<rect x="3.94434" y="20.9043" width="3" height="8.31848" rx="1.5" transform="rotate(180 3.94434 20.9043)" fill="#363232"/>
</svg>
