<svg width="64" height="62" viewBox="0 0 64 62" fill="none" xmlns="http://www.w3.org/2000/svg">
<rect x="39.5" y="0.5" width="24" height="24" rx="2.5" fill="#DB44A4" stroke="black"/>
<rect x="0.5" y="12.5" width="19" height="19" rx="2.5" fill="#00A9D8" stroke="black"/>
<rect x="13.5" y="42.5" width="19" height="19" rx="2.5" fill="#41BC28" stroke="black"/>
<rect x="43.5" y="39.5" width="19" height="19" rx="2.5" fill="#41BC28" stroke="black"/>
<rect x="29" y="18" width="10" height="2" fill="black"/>
<rect x="46" y="34" width="9" height="2" transform="rotate(-90 46 34)" fill="black"/>
<rect x="53" y="33" width="9" height="2" rx="1" transform="rotate(-90 53 33)" fill="black"/>
<rect x="53" y="31" width="6" height="2" rx="1" fill="black"/>
<rect x="57" y="39" width="3" height="2" transform="rotate(-90 57 39)" fill="black"/>
<path d="M29 34C29 33.4477 29.4477 33 30 33H47C47.5523 33 48 33.4477 48 34V34C48 34.5523 47.5523 35 47 35H30C29.4477 35 29 34.5523 29 34V34Z" fill="black"/>
<rect x="57" y="31" width="2" height="6" rx="1" fill="black"/>
<rect x="29" y="43" width="9" height="2" transform="rotate(-90 29 43)" fill="black"/>
<path d="M20 25H28C28.5523 25 29 25.4477 29 26V26C29 26.5523 28.5523 27 28 27H20V25Z" fill="black"/>
<path d="M27 26V20C27 18.8954 27.8954 18 29 18V18V26H27Z" fill="black"/>
</svg>
