<svg width="64" height="63" viewBox="0 0 64 63" fill="none" xmlns="http://www.w3.org/2000/svg">
<rect x="39.5" y="1.48805" width="24" height="24" rx="2.5" fill="#A3703E" stroke="black"/>
<rect x="0.5" y="13.4881" width="19" height="19" rx="2.5" fill="#00A9D8" stroke="black"/>
<rect x="13.5" y="43.4881" width="19" height="19" rx="2.5" fill="#41BC28" stroke="black"/>
<rect x="43.5" y="40.4881" width="19" height="19" rx="2.5" fill="#E8E879" stroke="black"/>
<path d="M32.2004 20.9881C32.2004 19.8835 33.0959 18.9881 34.2004 18.9881H39V20.9881H32.2004Z" fill="black"/>
<rect x="46" y="34.9881" width="9" height="2" transform="rotate(-90 46 34.9881)" fill="black"/>
<rect x="53" y="33.9881" width="9" height="2" rx="1" transform="rotate(-90 53 33.9881)" fill="black"/>
<rect x="54.0552" y="31.6056" width="7.7145" height="2" rx="1" transform="rotate(46.0691 54.0552 31.6056)" fill="black"/>
<rect x="56.9844" y="40.1209" width="3.03878" height="2" transform="rotate(-90 56.9844 40.1209)" fill="black"/>
<path d="M35.0386 34.9881C35.0386 34.4358 35.4863 33.9881 36.0386 33.9881H47C47.5523 33.9881 48 34.4358 48 34.9881C48 35.5403 47.5523 35.9881 47 35.9881H36.0386C35.4863 35.9881 35.0386 35.5403 35.0386 34.9881Z" fill="black"/>
<rect x="22.96" y="43.8404" width="2.70973" height="2" rx="1" transform="rotate(-90 22.96 43.8404)" fill="black"/>
<rect x="22.6082" y="41.7418" width="15.9419" height="2" rx="1" transform="rotate(-30.5806 22.6082 41.7418)" fill="black"/>
<path d="M19.059 26.8984L33.4542 19.1227C33.9402 18.8603 34.5469 19.0414 34.8093 19.5273C35.0718 20.0133 34.8907 20.62 34.4048 20.8824L20.0095 28.6581L19.059 26.8984Z" fill="black"/>
</svg>
