<svg width="512" height="92" viewBox="0 0 512 92" fill="none" xmlns="http://www.w3.org/2000/svg">
<path d="M6.22475 69.6643V20.6643H13.2247V69.6643H6.22475ZM23.1013 69.6643V34.3843H29.4013L29.8213 40.4043C30.9413 38.3043 32.528 36.6476 34.5813 35.4343C36.6346 34.1743 38.9913 33.5443 41.6513 33.5443C44.4513 33.5443 46.8546 34.1043 48.8613 35.2243C50.868 36.3443 52.4313 38.0476 53.5513 40.3343C54.6713 42.5743 55.2313 45.3976 55.2313 48.8043V69.6643H48.2313V49.5043C48.2313 46.2376 47.508 43.7643 46.0613 42.0843C44.6146 40.4043 42.5146 39.5643 39.7613 39.5643C37.9413 39.5643 36.308 40.0076 34.8613 40.8943C33.4146 41.7343 32.248 42.9943 31.3613 44.6743C30.5213 46.3543 30.1013 48.4076 30.1013 50.8343V69.6643H23.1013ZM78.7453 69.6643C76.5053 69.6643 74.5686 69.3143 72.9353 68.6143C71.302 67.9143 70.042 66.7476 69.1553 65.1143C68.2686 63.481 67.8253 61.2643 67.8253 58.4643V40.3343H61.7353V34.3843H67.8253L68.6653 25.5643H74.8253V34.3843H84.8353V40.3343H74.8253V58.5343C74.8253 60.541 75.2453 61.9176 76.0853 62.6643C76.9253 63.3643 78.372 63.7143 80.4253 63.7143H84.4853V69.6643H78.7453ZM92.5544 69.6643V34.3843H98.8544L99.4844 41.0343C100.278 39.4476 101.304 38.1176 102.564 37.0443C103.824 35.9243 105.294 35.061 106.974 34.4543C108.701 33.8476 110.661 33.5443 112.854 33.5443V40.9643H110.334C108.888 40.9643 107.511 41.151 106.204 41.5243C104.898 41.851 103.731 42.4343 102.704 43.2743C101.724 44.1143 100.954 45.2576 100.394 46.7043C99.8344 48.151 99.5544 49.9476 99.5544 52.0943V69.6643H92.5544ZM130.973 70.5043C128.08 70.5043 125.676 70.0143 123.763 69.0343C121.85 68.0543 120.426 66.7476 119.493 65.1143C118.56 63.4343 118.093 61.6376 118.093 59.7243C118.093 57.391 118.7 55.4076 119.913 53.7743C121.126 52.0943 122.853 50.811 125.093 49.9243C127.333 49.0376 130.016 48.5943 133.143 48.5943H142.313C142.313 46.541 142.01 44.8376 141.403 43.4843C140.796 42.131 139.886 41.1276 138.673 40.4743C137.506 39.7743 136.013 39.4243 134.193 39.4243C132.093 39.4243 130.296 39.9376 128.803 40.9643C127.31 41.9443 126.376 43.4143 126.003 45.3743H119.003C119.283 42.901 120.123 40.801 121.523 39.0743C122.97 37.301 124.813 35.9476 127.053 35.0143C129.293 34.0343 131.673 33.5443 134.193 33.5443C137.506 33.5443 140.283 34.1276 142.523 35.2943C144.763 36.461 146.443 38.1176 147.563 40.2643C148.73 42.3643 149.313 44.8843 149.313 47.8243V69.6643H143.223L142.663 63.7143C142.15 64.6476 141.543 65.5343 140.843 66.3743C140.143 67.2143 139.303 67.9376 138.323 68.5443C137.39 69.151 136.293 69.6176 135.033 69.9443C133.82 70.3176 132.466 70.5043 130.973 70.5043ZM132.303 64.8343C133.796 64.8343 135.15 64.531 136.363 63.9243C137.576 63.3176 138.603 62.501 139.443 61.4743C140.33 60.401 140.983 59.211 141.403 57.9043C141.87 56.551 142.126 55.1743 142.173 53.7743V53.5643H133.843C131.836 53.5643 130.203 53.821 128.943 54.3343C127.73 54.801 126.843 55.4543 126.283 56.2943C125.723 57.1343 125.443 58.1143 125.443 59.2343C125.443 60.401 125.7 61.4043 126.213 62.2443C126.773 63.0376 127.566 63.6676 128.593 64.1343C129.62 64.601 130.856 64.8343 132.303 64.8343Z" fill="#41BC28"/>
<path d="M174.558 70.5043C171.151 70.5043 168.118 69.7343 165.458 68.1943C162.798 66.6076 160.698 64.4376 159.158 61.6843C157.664 58.931 156.918 55.7343 156.918 52.0943C156.918 48.4076 157.664 45.1876 159.158 42.4343C160.698 39.6343 162.798 37.4643 165.458 35.9243C168.118 34.3376 171.151 33.5443 174.558 33.5443C178.851 33.5443 182.444 34.6643 185.338 36.9043C188.231 39.1443 190.074 42.1776 190.868 46.0043H183.588C183.121 43.951 182.048 42.3643 180.368 41.2443C178.734 40.1243 176.774 39.5643 174.488 39.5643C172.621 39.5643 170.894 40.0543 169.308 41.0343C167.721 41.9676 166.438 43.3676 165.458 45.2343C164.524 47.0543 164.058 49.3176 164.058 52.0243C164.058 54.031 164.338 55.8276 164.898 57.4143C165.458 58.9543 166.204 60.261 167.138 61.3343C168.118 62.4076 169.238 63.2243 170.498 63.7843C171.758 64.2976 173.088 64.5543 174.488 64.5543C176.028 64.5543 177.404 64.321 178.618 63.8543C179.878 63.341 180.928 62.5943 181.768 61.6143C182.654 60.6343 183.261 59.4676 183.588 58.1143H190.868C190.074 61.8476 188.231 64.8576 185.338 67.1443C182.444 69.3843 178.851 70.5043 174.558 70.5043ZM215.158 70.5043C211.845 70.5043 208.858 69.7343 206.198 68.1943C203.585 66.6543 201.508 64.5076 199.968 61.7543C198.475 58.9543 197.728 55.7343 197.728 52.0943C197.728 48.361 198.498 45.1176 200.038 42.3643C201.578 39.5643 203.678 37.3943 206.338 35.8543C208.998 34.3143 211.985 33.5443 215.298 33.5443C218.658 33.5443 221.645 34.3143 224.258 35.8543C226.872 37.3943 228.925 39.541 230.418 42.2943C231.958 45.0476 232.728 48.291 232.728 52.0243C232.728 55.7576 231.958 59.001 230.418 61.7543C228.925 64.5076 226.848 66.6543 224.188 68.1943C221.528 69.7343 218.518 70.5043 215.158 70.5043ZM215.158 64.4843C217.072 64.4843 218.798 64.0176 220.338 63.0843C221.925 62.151 223.185 60.7743 224.118 58.9543C225.098 57.0876 225.588 54.7776 225.588 52.0243C225.588 49.271 225.122 46.9843 224.188 45.1643C223.255 43.2976 221.995 41.8976 220.408 40.9643C218.868 40.031 217.165 39.5643 215.298 39.5643C213.432 39.5643 211.705 40.031 210.118 40.9643C208.532 41.8976 207.248 43.2976 206.268 45.1643C205.335 46.9843 204.868 49.271 204.868 52.0243C204.868 54.7776 205.335 57.0876 206.268 58.9543C207.248 60.7743 208.508 62.151 210.048 63.0843C211.635 64.0176 213.338 64.4843 215.158 64.4843ZM240.963 69.6643V34.3843H247.263L247.683 40.4043C248.803 38.3043 250.389 36.6476 252.443 35.4343C254.496 34.1743 256.853 33.5443 259.513 33.5443C262.313 33.5443 264.716 34.1043 266.723 35.2243C268.729 36.3443 270.293 38.0476 271.413 40.3343C272.533 42.5743 273.093 45.3976 273.093 48.8043V69.6643H266.093V49.5043C266.093 46.2376 265.369 43.7643 263.923 42.0843C262.476 40.4043 260.376 39.5643 257.623 39.5643C255.803 39.5643 254.169 40.0076 252.723 40.8943C251.276 41.7343 250.109 42.9943 249.223 44.6743C248.383 46.3543 247.963 48.4076 247.963 50.8343V69.6643H240.963ZM282.047 69.6643V34.3843H288.347L288.767 40.4043C289.887 38.3043 291.473 36.6476 293.527 35.4343C295.58 34.1743 297.937 33.5443 300.597 33.5443C303.397 33.5443 305.8 34.1043 307.807 35.2243C309.813 36.3443 311.377 38.0476 312.497 40.3343C313.617 42.5743 314.177 45.3976 314.177 48.8043V69.6643H307.177V49.5043C307.177 46.2376 306.453 43.7643 305.007 42.0843C303.56 40.4043 301.46 39.5643 298.707 39.5643C296.887 39.5643 295.253 40.0076 293.807 40.8943C292.36 41.7343 291.193 42.9943 290.307 44.6743C289.467 46.3543 289.047 48.4076 289.047 50.8343V69.6643H282.047ZM339.091 70.5043C335.731 70.5043 332.744 69.7343 330.131 68.1943C327.517 66.6543 325.464 64.5076 323.971 61.7543C322.524 59.001 321.801 55.8043 321.801 52.1643C321.801 48.431 322.524 45.1876 323.971 42.4343C325.464 39.6343 327.517 37.4643 330.131 35.9243C332.744 34.3376 335.777 33.5443 339.231 33.5443C342.684 33.5443 345.647 34.3143 348.121 35.8543C350.594 37.3943 352.507 39.4476 353.861 42.0143C355.214 44.5343 355.891 47.3343 355.891 50.4143C355.891 50.881 355.867 51.3943 355.821 51.9543C355.821 52.4676 355.797 53.051 355.751 53.7043H326.911V48.7343H348.891C348.751 45.7943 347.771 43.5076 345.951 41.8743C344.131 40.1943 341.867 39.3543 339.161 39.3543C337.247 39.3543 335.497 39.7976 333.911 40.6843C332.324 41.5243 331.041 42.7843 330.061 44.4643C329.127 46.0976 328.661 48.1743 328.661 50.6943V52.6543C328.661 55.2676 329.127 57.4843 330.061 59.3043C331.041 61.0776 332.324 62.431 333.911 63.3643C335.497 64.251 337.224 64.6943 339.091 64.6943C341.331 64.6943 343.174 64.2043 344.621 63.2243C346.067 62.2443 347.141 60.9143 347.841 59.2343H354.841C354.234 61.381 353.207 63.3176 351.761 65.0443C350.314 66.7243 348.517 68.0543 346.371 69.0343C344.271 70.0143 341.844 70.5043 339.091 70.5043ZM379.978 70.5043C376.571 70.5043 373.538 69.7343 370.878 68.1943C368.218 66.6076 366.118 64.4376 364.578 61.6843C363.084 58.931 362.338 55.7343 362.338 52.0943C362.338 48.4076 363.084 45.1876 364.578 42.4343C366.118 39.6343 368.218 37.4643 370.878 35.9243C373.538 34.3376 376.571 33.5443 379.978 33.5443C384.271 33.5443 387.864 34.6643 390.758 36.9043C393.651 39.1443 395.494 42.1776 396.288 46.0043H389.008C388.541 43.951 387.468 42.3643 385.788 41.2443C384.154 40.1243 382.194 39.5643 379.908 39.5643C378.041 39.5643 376.314 40.0543 374.728 41.0343C373.141 41.9676 371.858 43.3676 370.878 45.2343C369.944 47.0543 369.478 49.3176 369.478 52.0243C369.478 54.031 369.758 55.8276 370.318 57.4143C370.878 58.9543 371.624 60.261 372.558 61.3343C373.538 62.4076 374.658 63.2243 375.918 63.7843C377.178 64.2976 378.508 64.5543 379.908 64.5543C381.448 64.5543 382.824 64.321 384.038 63.8543C385.298 63.341 386.348 62.5943 387.188 61.6143C388.074 60.6343 388.681 59.4676 389.008 58.1143H396.288C395.494 61.8476 393.651 64.8576 390.758 67.1443C387.864 69.3843 384.271 70.5043 379.978 70.5043ZM418.286 69.6643C416.046 69.6643 414.11 69.3143 412.476 68.6143C410.843 67.9143 409.583 66.7476 408.696 65.1143C407.81 63.481 407.366 61.2643 407.366 58.4643V40.3343H401.276V34.3843H407.366L408.206 25.5643H414.366V34.3843H424.376V40.3343H414.366V58.5343C414.366 60.541 414.786 61.9176 415.626 62.6643C416.466 63.3643 417.913 63.7143 419.966 63.7143H424.026V69.6643H418.286ZM447.098 70.5043C443.738 70.5043 440.752 69.7343 438.138 68.1943C435.525 66.6543 433.472 64.5076 431.978 61.7543C430.532 59.001 429.808 55.8043 429.808 52.1643C429.808 48.431 430.532 45.1876 431.978 42.4343C433.472 39.6343 435.525 37.4643 438.138 35.9243C440.752 34.3376 443.785 33.5443 447.238 33.5443C450.692 33.5443 453.655 34.3143 456.128 35.8543C458.602 37.3943 460.515 39.4476 461.868 42.0143C463.222 44.5343 463.898 47.3343 463.898 50.4143C463.898 50.881 463.875 51.3943 463.828 51.9543C463.828 52.4676 463.805 53.051 463.758 53.7043H434.918V48.7343H456.898C456.758 45.7943 455.778 43.5076 453.958 41.8743C452.138 40.1943 449.875 39.3543 447.168 39.3543C445.255 39.3543 443.505 39.7976 441.918 40.6843C440.332 41.5243 439.048 42.7843 438.068 44.4643C437.135 46.0976 436.668 48.1743 436.668 50.6943V52.6543C436.668 55.2676 437.135 57.4843 438.068 59.3043C439.048 61.0776 440.332 62.431 441.918 63.3643C443.505 64.251 445.232 64.6943 447.098 64.6943C449.338 64.6943 451.182 64.2043 452.628 63.2243C454.075 62.2443 455.148 60.9143 455.848 59.2343H462.848C462.242 61.381 461.215 63.3176 459.768 65.0443C458.322 66.7243 456.525 68.0543 454.378 69.0343C452.278 70.0143 449.852 70.5043 447.098 70.5043ZM487.356 70.5043C483.996 70.5043 481.032 69.711 478.466 68.1243C475.899 66.491 473.892 64.2976 472.446 61.5443C471.046 58.7443 470.346 55.571 470.346 52.0243C470.346 48.431 471.046 45.2576 472.446 42.5043C473.892 39.751 475.899 37.581 478.466 35.9943C481.079 34.361 484.066 33.5443 487.426 33.5443C490.179 33.5443 492.606 34.1043 494.706 35.2243C496.806 36.2976 498.439 37.8376 499.606 39.8443V19.2643H506.606V69.6643H500.306L499.606 64.2043C498.906 65.2776 497.996 66.3043 496.876 67.2843C495.756 68.2176 494.402 68.9876 492.816 69.5943C491.229 70.201 489.409 70.5043 487.356 70.5043ZM488.476 64.4143C490.669 64.4143 492.606 63.901 494.286 62.8743C495.966 61.8476 497.249 60.401 498.136 58.5343C499.069 56.6676 499.536 54.4976 499.536 52.0243C499.536 49.551 499.069 47.4043 498.136 45.5843C497.249 43.7176 495.966 42.271 494.286 41.2443C492.606 40.171 490.669 39.6343 488.476 39.6343C486.376 39.6343 484.486 40.171 482.806 41.2443C481.126 42.271 479.819 43.7176 478.886 45.5843C477.952 47.4043 477.486 49.551 477.486 52.0243C477.486 54.4976 477.952 56.6676 478.886 58.5343C479.819 60.401 481.126 61.8476 482.806 62.8743C484.486 63.901 486.376 64.4143 488.476 64.4143Z" fill="#A3703E"/>
<path d="M79.3416 80.6643H506.627V83.6643C506.627 85.3212 505.284 86.6643 503.627 86.6643H79.3416V80.6643Z" fill="#A3703E"/>
<path d="M154.766 6.84839H411.339C412.995 6.84839 414.339 8.19153 414.339 9.84839V12.8484H154.766V6.84839Z" fill="#A3703E"/>
<rect x="23.0913" y="80.6643" width="131.675" height="6" fill="#41BC28"/>
<path d="M6.23511 9.66431C6.23511 8.00745 7.57825 6.66431 9.23511 6.66431H154.766V12.6643H6.23511V9.66431Z" fill="#41BC28"/>
<rect x="240.975" y="67.6323" width="7" height="13" fill="#A3703E"/>
<rect x="266.095" y="67.6323" width="7" height="13" fill="#A3703E"/>
<rect x="408.189" y="12.7034" width="6.14917" height="13.0164" fill="#A3703E"/>
<rect x="282.064" y="67.6643" width="7" height="13" fill="#A3703E"/>
<rect x="307.184" y="67.6643" width="7" height="13" fill="#A3703E"/>
<rect x="500.304" y="69.6643" width="6.32373" height="11" fill="#A3703E"/>
<rect x="23.0913" y="69.6643" width="7" height="13" fill="#41BC28"/>
<rect x="6.23511" y="9.66431" width="7" height="13" fill="#41BC28"/>
<rect x="48.2205" y="69.6643" width="7" height="13" fill="#41BC28"/>
</svg>
