<svg width="664" height="92" viewBox="0 0 664 92" fill="none" xmlns="http://www.w3.org/2000/svg">
<path d="M5.60121 69.8762V20.8762H12.6012V69.8762H5.60121ZM22.4778 69.8762V34.5962H28.7778L29.1978 40.6162C30.3178 38.5162 31.9044 36.8596 33.9578 35.6462C36.0111 34.3862 38.3678 33.7562 41.0278 33.7562C43.8278 33.7562 46.2311 34.3162 48.2378 35.4362C50.2444 36.5562 51.8078 38.2596 52.9278 40.5462C54.0478 42.7862 54.6078 45.6096 54.6078 49.0162V69.8762H47.6078V49.7162C47.6078 46.4496 46.8844 43.9762 45.4378 42.2962C43.9911 40.6162 41.8911 39.7762 39.1378 39.7762C37.3178 39.7762 35.6844 40.2196 34.2378 41.1062C32.7911 41.9462 31.6244 43.2062 30.7378 44.8862C29.8978 46.5662 29.4778 48.6196 29.4778 51.0462V69.8762H22.4778ZM78.1218 69.8762C75.8818 69.8762 73.9451 69.5262 72.3118 68.8262C70.6784 68.1262 69.4184 66.9596 68.5318 65.3262C67.6451 63.6929 67.2018 61.4762 67.2018 58.6762V40.5462H61.1118V34.5962H67.2018L68.0418 25.7762H74.2018V34.5962H84.2118V40.5462H74.2018V58.7462C74.2018 60.7529 74.6218 62.1296 75.4618 62.8762C76.3018 63.5762 77.7484 63.9262 79.8018 63.9262H83.8618V69.8762H78.1218ZM106.934 70.7162C103.574 70.7162 100.587 69.9462 97.9739 68.4062C95.3605 66.8662 93.3072 64.7196 91.8139 61.9662C90.3672 59.2129 89.6439 56.0162 89.6439 52.3762C89.6439 48.6429 90.3672 45.3996 91.8139 42.6462C93.3072 39.8462 95.3605 37.6762 97.9739 36.1362C100.587 34.5496 103.621 33.7562 107.074 33.7562C110.527 33.7562 113.491 34.5262 115.964 36.0662C118.437 37.6062 120.351 39.6596 121.704 42.2262C123.057 44.7462 123.734 47.5462 123.734 50.6262C123.734 51.0929 123.711 51.6062 123.664 52.1662C123.664 52.6796 123.641 53.2629 123.594 53.9162H94.7539V48.9462H116.734C116.594 46.0062 115.614 43.7196 113.794 42.0862C111.974 40.4062 109.711 39.5662 107.004 39.5662C105.091 39.5662 103.341 40.0096 101.754 40.8962C100.167 41.7362 98.8839 42.9962 97.9039 44.6762C96.9705 46.3096 96.5039 48.3862 96.5039 50.9062V52.8662C96.5039 55.4796 96.9705 57.6962 97.9039 59.5162C98.8839 61.2896 100.167 62.6429 101.754 63.5762C103.341 64.4629 105.067 64.9062 106.934 64.9062C109.174 64.9062 111.017 64.4162 112.464 63.4362C113.911 62.4562 114.984 61.1262 115.684 59.4462H122.684C122.077 61.5929 121.051 63.5296 119.604 65.2562C118.157 66.9362 116.361 68.2662 114.214 69.2462C112.114 70.2262 109.687 70.7162 106.934 70.7162ZM131.511 69.8762V34.5962H137.811L138.441 41.2462C139.234 39.6596 140.261 38.3296 141.521 37.2562C142.781 36.1362 144.251 35.2729 145.931 34.6662C147.658 34.0596 149.618 33.7562 151.811 33.7562V41.1762H149.291C147.844 41.1762 146.468 41.3629 145.161 41.7362C143.854 42.0629 142.688 42.6462 141.661 43.4862C140.681 44.3262 139.911 45.4696 139.351 46.9162C138.791 48.3629 138.511 50.1596 138.511 52.3062V69.8762H131.511Z" fill="#41BC28"/>
<path d="M173.524 70.7162C170.117 70.7162 167.084 69.9462 164.424 68.4062C161.764 66.8196 159.664 64.6496 158.124 61.8962C156.631 59.1429 155.884 55.9462 155.884 52.3062C155.884 48.6196 156.631 45.3996 158.124 42.6462C159.664 39.8462 161.764 37.6762 164.424 36.1362C167.084 34.5496 170.117 33.7562 173.524 33.7562C177.817 33.7562 181.411 34.8762 184.304 37.1162C187.197 39.3562 189.041 42.3896 189.834 46.2162H182.554C182.087 44.1629 181.014 42.5762 179.334 41.4562C177.701 40.3362 175.741 39.7762 173.454 39.7762C171.587 39.7762 169.861 40.2662 168.274 41.2462C166.687 42.1796 165.404 43.5796 164.424 45.4462C163.491 47.2662 163.024 49.5296 163.024 52.2362C163.024 54.2429 163.304 56.0396 163.864 57.6262C164.424 59.1662 165.171 60.4729 166.104 61.5462C167.084 62.6196 168.204 63.4362 169.464 63.9962C170.724 64.5096 172.054 64.7662 173.454 64.7662C174.994 64.7662 176.371 64.5329 177.584 64.0662C178.844 63.5529 179.894 62.8062 180.734 61.8262C181.621 60.8462 182.227 59.6796 182.554 58.3262H189.834C189.041 62.0596 187.197 65.0696 184.304 67.3562C181.411 69.5962 177.817 70.7162 173.524 70.7162ZM214.125 70.7162C210.811 70.7162 207.825 69.9462 205.165 68.4062C202.551 66.8662 200.475 64.7196 198.935 61.9662C197.441 59.1662 196.695 55.9462 196.695 52.3062C196.695 48.5729 197.465 45.3296 199.005 42.5762C200.545 39.7762 202.645 37.6062 205.305 36.0662C207.965 34.5262 210.951 33.7562 214.265 33.7562C217.625 33.7562 220.611 34.5262 223.225 36.0662C225.838 37.6062 227.891 39.7529 229.385 42.5062C230.925 45.2596 231.695 48.5029 231.695 52.2362C231.695 55.9696 230.925 59.2129 229.385 61.9662C227.891 64.7196 225.815 66.8662 223.155 68.4062C220.495 69.9462 217.485 70.7162 214.125 70.7162ZM214.125 64.6962C216.038 64.6962 217.765 64.2296 219.305 63.2962C220.891 62.3629 222.151 60.9862 223.085 59.1662C224.065 57.2996 224.555 54.9896 224.555 52.2362C224.555 49.4829 224.088 47.1962 223.155 45.3762C222.221 43.5096 220.961 42.1096 219.375 41.1762C217.835 40.2429 216.131 39.7762 214.265 39.7762C212.398 39.7762 210.671 40.2429 209.085 41.1762C207.498 42.1096 206.215 43.5096 205.235 45.3762C204.301 47.1962 203.835 49.4829 203.835 52.2362C203.835 54.9896 204.301 57.2996 205.235 59.1662C206.215 60.9862 207.475 62.3629 209.015 63.2962C210.601 64.2296 212.305 64.6962 214.125 64.6962ZM239.929 69.8762V34.5962H246.229L246.649 40.6162C247.769 38.5162 249.356 36.8596 251.409 35.6462C253.462 34.3862 255.819 33.7562 258.479 33.7562C261.279 33.7562 263.682 34.3162 265.689 35.4362C267.696 36.5562 269.259 38.2596 270.379 40.5462C271.499 42.7862 272.059 45.6096 272.059 49.0162V69.8762H265.059V49.7162C265.059 46.4496 264.336 43.9762 262.889 42.2962C261.442 40.6162 259.342 39.7762 256.589 39.7762C254.769 39.7762 253.136 40.2196 251.689 41.1062C250.242 41.9462 249.076 43.2062 248.189 44.8862C247.349 46.5662 246.929 48.6196 246.929 51.0462V69.8762H239.929ZM281.013 69.8762V34.5962H287.313L287.733 40.6162C288.853 38.5162 290.44 36.8596 292.493 35.6462C294.546 34.3862 296.903 33.7562 299.563 33.7562C302.363 33.7562 304.766 34.3162 306.773 35.4362C308.78 36.5562 310.343 38.2596 311.463 40.5462C312.583 42.7862 313.143 45.6096 313.143 49.0162V69.8762H306.143V49.7162C306.143 46.4496 305.42 43.9762 303.973 42.2962C302.526 40.6162 300.426 39.7762 297.673 39.7762C295.853 39.7762 294.22 40.2196 292.773 41.1062C291.326 41.9462 290.16 43.2062 289.273 44.8862C288.433 46.5662 288.013 48.6196 288.013 51.0462V69.8762H281.013ZM338.057 70.7162C334.697 70.7162 331.71 69.9462 329.097 68.4062C326.484 66.8662 324.43 64.7196 322.937 61.9662C321.49 59.2129 320.767 56.0162 320.767 52.3762C320.767 48.6429 321.49 45.3996 322.937 42.6462C324.43 39.8462 326.484 37.6762 329.097 36.1362C331.71 34.5496 334.744 33.7562 338.197 33.7562C341.65 33.7562 344.614 34.5262 347.087 36.0662C349.56 37.6062 351.474 39.6596 352.827 42.2262C354.18 44.7462 354.857 47.5462 354.857 50.6262C354.857 51.0929 354.834 51.6062 354.787 52.1662C354.787 52.6796 354.764 53.2629 354.717 53.9162H325.877V48.9462H347.857C347.717 46.0062 346.737 43.7196 344.917 42.0862C343.097 40.4062 340.834 39.5662 338.127 39.5662C336.214 39.5662 334.464 40.0096 332.877 40.8962C331.29 41.7362 330.007 42.9962 329.027 44.6762C328.094 46.3096 327.627 48.3862 327.627 50.9062V52.8662C327.627 55.4796 328.094 57.6962 329.027 59.5162C330.007 61.2896 331.29 62.6429 332.877 63.5762C334.464 64.4629 336.19 64.9062 338.057 64.9062C340.297 64.9062 342.14 64.4162 343.587 63.4362C345.034 62.4562 346.107 61.1262 346.807 59.4462H353.807C353.2 61.5929 352.174 63.5296 350.727 65.2562C349.28 66.9362 347.484 68.2662 345.337 69.2462C343.237 70.2262 340.81 70.7162 338.057 70.7162ZM378.944 70.7162C375.537 70.7162 372.504 69.9462 369.844 68.4062C367.184 66.8196 365.084 64.6496 363.544 61.8962C362.051 59.1429 361.304 55.9462 361.304 52.3062C361.304 48.6196 362.051 45.3996 363.544 42.6462C365.084 39.8462 367.184 37.6762 369.844 36.1362C372.504 34.5496 375.537 33.7562 378.944 33.7562C383.237 33.7562 386.831 34.8762 389.724 37.1162C392.617 39.3562 394.461 42.3896 395.254 46.2162H387.974C387.507 44.1629 386.434 42.5762 384.754 41.4562C383.121 40.3362 381.161 39.7762 378.874 39.7762C377.007 39.7762 375.281 40.2662 373.694 41.2462C372.107 42.1796 370.824 43.5796 369.844 45.4462C368.911 47.2662 368.444 49.5296 368.444 52.2362C368.444 54.2429 368.724 56.0396 369.284 57.6262C369.844 59.1662 370.591 60.4729 371.524 61.5462C372.504 62.6196 373.624 63.4362 374.884 63.9962C376.144 64.5096 377.474 64.7662 378.874 64.7662C380.414 64.7662 381.791 64.5329 383.004 64.0662C384.264 63.5529 385.314 62.8062 386.154 61.8262C387.041 60.8462 387.647 59.6796 387.974 58.3262H395.254C394.461 62.0596 392.617 65.0696 389.724 67.3562C386.831 69.5962 383.237 70.7162 378.944 70.7162ZM417.253 69.8762C415.013 69.8762 413.076 69.5262 411.443 68.8262C409.809 68.1262 408.549 66.9596 407.663 65.3262C406.776 63.6929 406.333 61.4762 406.333 58.6762V40.5462H400.243V34.5962H406.333L407.173 25.7762H413.333V34.5962H423.343V40.5462H413.333V58.7462C413.333 60.7529 413.753 62.1296 414.593 62.8762C415.433 63.5762 416.879 63.9262 418.933 63.9262H422.993V69.8762H417.253ZM446.065 70.7162C442.705 70.7162 439.718 69.9462 437.105 68.4062C434.491 66.8662 432.438 64.7196 430.945 61.9662C429.498 59.2129 428.775 56.0162 428.775 52.3762C428.775 48.6429 429.498 45.3996 430.945 42.6462C432.438 39.8462 434.491 37.6762 437.105 36.1362C439.718 34.5496 442.751 33.7562 446.205 33.7562C449.658 33.7562 452.621 34.5262 455.095 36.0662C457.568 37.6062 459.481 39.6596 460.835 42.2262C462.188 44.7462 462.865 47.5462 462.865 50.6262C462.865 51.0929 462.841 51.6062 462.795 52.1662C462.795 52.6796 462.771 53.2629 462.725 53.9162H433.885V48.9462H455.865C455.725 46.0062 454.745 43.7196 452.925 42.0862C451.105 40.4062 448.841 39.5662 446.135 39.5662C444.221 39.5662 442.471 40.0096 440.885 40.8962C439.298 41.7362 438.015 42.9962 437.035 44.6762C436.101 46.3096 435.635 48.3862 435.635 50.9062V52.8662C435.635 55.4796 436.101 57.6962 437.035 59.5162C438.015 61.2896 439.298 62.6429 440.885 63.5762C442.471 64.4629 444.198 64.9062 446.065 64.9062C448.305 64.9062 450.148 64.4162 451.595 63.4362C453.041 62.4562 454.115 61.1262 454.815 59.4462H461.815C461.208 61.5929 460.181 63.5296 458.735 65.2562C457.288 66.9362 455.491 68.2662 453.345 69.2462C451.245 70.2262 448.818 70.7162 446.065 70.7162ZM486.322 70.7162C482.962 70.7162 479.999 69.9229 477.432 68.3362C474.865 66.7029 472.859 64.5096 471.412 61.7562C470.012 58.9562 469.312 55.7829 469.312 52.2362C469.312 48.6429 470.012 45.4696 471.412 42.7162C472.859 39.9629 474.865 37.7929 477.432 36.2062C480.045 34.5729 483.032 33.7562 486.392 33.7562C489.145 33.7562 491.572 34.3162 493.672 35.4362C495.772 36.5096 497.405 38.0496 498.572 40.0562V19.4762H505.572V69.8762H499.272L498.572 64.4162C497.872 65.4896 496.962 66.5162 495.842 67.4962C494.722 68.4296 493.369 69.1996 491.782 69.8062C490.195 70.4129 488.375 70.7162 486.322 70.7162ZM487.442 64.6262C489.635 64.6262 491.572 64.1129 493.252 63.0862C494.932 62.0596 496.215 60.6129 497.102 58.7462C498.035 56.8796 498.502 54.7096 498.502 52.2362C498.502 49.7629 498.035 47.6162 497.102 45.7962C496.215 43.9296 494.932 42.4829 493.252 41.4562C491.572 40.3829 489.635 39.8462 487.442 39.8462C485.342 39.8462 483.452 40.3829 481.772 41.4562C480.092 42.4829 478.785 43.9296 477.852 45.7962C476.919 47.6162 476.452 49.7629 476.452 52.2362C476.452 54.7096 476.919 56.8796 477.852 58.7462C478.785 60.6129 480.092 62.0596 481.772 63.0862C483.452 64.1129 485.342 64.6262 487.442 64.6262Z" fill="#A3703E"/>
<path d="M515.144 69.8762V34.5962H521.444L521.864 40.6162C522.984 38.5162 524.57 36.8596 526.624 35.6462C528.677 34.3862 531.034 33.7562 533.694 33.7562C536.494 33.7562 538.897 34.3162 540.904 35.4362C542.91 36.5562 544.474 38.2596 545.594 40.5462C546.714 42.7862 547.274 45.6096 547.274 49.0162V69.8762H540.274V49.7162C540.274 46.4496 539.55 43.9762 538.104 42.2962C536.657 40.6162 534.557 39.7762 531.804 39.7762C529.984 39.7762 528.35 40.2196 526.904 41.1062C525.457 41.9462 524.29 43.2062 523.404 44.8862C522.564 46.5662 522.144 48.6196 522.144 51.0462V69.8762H515.144ZM572.188 70.7162C568.828 70.7162 565.841 69.9462 563.228 68.4062C560.614 66.8662 558.561 64.7196 557.068 61.9662C555.621 59.2129 554.898 56.0162 554.898 52.3762C554.898 48.6429 555.621 45.3996 557.068 42.6462C558.561 39.8462 560.614 37.6762 563.228 36.1362C565.841 34.5496 568.874 33.7562 572.328 33.7562C575.781 33.7562 578.744 34.5262 581.218 36.0662C583.691 37.6062 585.604 39.6596 586.958 42.2262C588.311 44.7462 588.988 47.5462 588.988 50.6262C588.988 51.0929 588.964 51.6062 588.918 52.1662C588.918 52.6796 588.894 53.2629 588.848 53.9162H560.008V48.9462H581.988C581.848 46.0062 580.868 43.7196 579.048 42.0862C577.228 40.4062 574.964 39.5662 572.258 39.5662C570.344 39.5662 568.594 40.0096 567.008 40.8962C565.421 41.7362 564.138 42.9962 563.158 44.6762C562.224 46.3096 561.758 48.3862 561.758 50.9062V52.8662C561.758 55.4796 562.224 57.6962 563.158 59.5162C564.138 61.2896 565.421 62.6429 567.008 63.5762C568.594 64.4629 570.321 64.9062 572.188 64.9062C574.428 64.9062 576.271 64.4162 577.718 63.4362C579.164 62.4562 580.238 61.1262 580.938 59.4462H587.938C587.331 61.5929 586.304 63.5296 584.858 65.2562C583.411 66.9362 581.614 68.2662 579.468 69.2462C577.368 70.2262 574.941 70.7162 572.188 70.7162ZM610.415 70.7162C607.428 70.7162 604.815 70.2262 602.575 69.2462C600.335 68.2662 598.562 66.8896 597.255 65.1162C595.948 63.3429 595.155 61.2662 594.875 58.8862H602.015C602.248 60.0062 602.692 61.0329 603.345 61.9662C604.045 62.8996 604.978 63.6462 606.145 64.2062C607.358 64.7662 608.782 65.0462 610.415 65.0462C611.955 65.0462 613.215 64.8362 614.195 64.4162C615.222 63.9496 615.968 63.3429 616.435 62.5962C616.902 61.8029 617.135 60.9629 617.135 60.0762C617.135 58.7696 616.808 57.7896 616.155 57.1362C615.548 56.4362 614.615 55.8996 613.355 55.5262C612.142 55.1062 610.672 54.7329 608.945 54.4062C607.312 54.1262 605.725 53.7529 604.185 53.2862C602.692 52.7729 601.338 52.1429 600.125 51.3962C598.958 50.6496 598.025 49.7162 597.325 48.5962C596.625 47.4296 596.275 46.0062 596.275 44.3262C596.275 42.3196 596.812 40.5229 597.885 38.9362C598.958 37.3029 600.475 36.0429 602.435 35.1562C604.442 34.2229 606.798 33.7562 609.505 33.7562C613.425 33.7562 616.575 34.6896 618.955 36.5562C621.335 38.4229 622.735 41.0596 623.155 44.4662H616.365C616.178 42.8796 615.478 41.6662 614.265 40.8262C613.052 39.9396 611.442 39.4962 609.435 39.4962C607.428 39.4962 605.888 39.8929 604.815 40.6862C603.742 41.4796 603.205 42.5296 603.205 43.8362C603.205 44.6762 603.508 45.4229 604.115 46.0762C604.722 46.7296 605.608 47.2896 606.775 47.7562C607.988 48.1762 609.458 48.5729 611.185 48.9462C613.658 49.4129 615.875 49.9962 617.835 50.6962C619.795 51.3962 621.358 52.4229 622.525 53.7762C623.692 55.1296 624.275 57.0662 624.275 59.5862C624.322 61.7796 623.762 63.7162 622.595 65.3962C621.475 67.0762 619.865 68.3829 617.765 69.3162C615.712 70.2496 613.262 70.7162 610.415 70.7162ZM646.167 70.7162C643.18 70.7162 640.567 70.2262 638.327 69.2462C636.087 68.2662 634.314 66.8896 633.007 65.1162C631.7 63.3429 630.907 61.2662 630.627 58.8862H637.767C638 60.0062 638.444 61.0329 639.097 61.9662C639.797 62.8996 640.73 63.6462 641.897 64.2062C643.11 64.7662 644.534 65.0462 646.167 65.0462C647.707 65.0462 648.967 64.8362 649.947 64.4162C650.974 63.9496 651.72 63.3429 652.187 62.5962C652.654 61.8029 652.887 60.9629 652.887 60.0762C652.887 58.7696 652.56 57.7896 651.907 57.1362C651.3 56.4362 650.367 55.8996 649.107 55.5262C647.894 55.1062 646.424 54.7329 644.697 54.4062C643.064 54.1262 641.477 53.7529 639.937 53.2862C638.444 52.7729 637.09 52.1429 635.877 51.3962C634.71 50.6496 633.777 49.7162 633.077 48.5962C632.377 47.4296 632.027 46.0062 632.027 44.3262C632.027 42.3196 632.564 40.5229 633.637 38.9362C634.71 37.3029 636.227 36.0429 638.187 35.1562C640.194 34.2229 642.55 33.7562 645.257 33.7562C649.177 33.7562 652.327 34.6896 654.707 36.5562C657.087 38.4229 658.487 41.0596 658.907 44.4662H652.117C651.93 42.8796 651.23 41.6662 650.017 40.8262C648.804 39.9396 647.194 39.4962 645.187 39.4962C643.18 39.4962 641.64 39.8929 640.567 40.6862C639.494 41.4796 638.957 42.5296 638.957 43.8362C638.957 44.6762 639.26 45.4229 639.867 46.0762C640.474 46.7296 641.36 47.2896 642.527 47.7562C643.74 48.1762 645.21 48.5729 646.937 48.9462C649.41 49.4129 651.627 49.9962 653.587 50.6962C655.547 51.3962 657.11 52.4229 658.277 53.7762C659.444 55.1296 660.027 57.0662 660.027 59.5862C660.074 61.7796 659.514 63.7162 658.347 65.3962C657.227 67.0762 655.617 68.3829 653.517 69.3162C651.464 70.2496 649.014 70.7162 646.167 70.7162Z" fill="#00A9D8"/>
<rect x="155.575" y="80.8762" width="350.474" height="6" fill="#A3703E"/>
<path d="M155.575 7.0603H410.341C411.997 7.0603 413.341 8.40345 413.341 10.0603C413.341 11.7172 411.997 13.0603 410.341 13.0603H155.575V7.0603Z" fill="#A3703E"/>
<path d="M22.478 80.8762H155.575V86.8762H25.478C23.8212 86.8762 22.478 85.5331 22.478 83.8762V80.8762Z" fill="#41BC28"/>
<path d="M68.0527 10.0603C68.0527 8.40345 69.3959 7.0603 71.0527 7.0603H155.575V13.0603H68.0527V10.0603Z" fill="#41BC28"/>
<rect x="239.938" y="67.8762" width="7" height="13" fill="#A3703E"/>
<rect x="265.059" y="67.8762" width="7" height="13" fill="#A3703E"/>
<rect x="68.0527" y="12.7498" width="6.14917" height="13.0164" fill="#41BC28"/>
<path d="M407.191 7.0603H410.341C411.997 7.0603 413.341 8.40345 413.341 10.0603V25.7661H407.191V7.0603Z" fill="#A3703E"/>
<rect x="281.027" y="67.9082" width="7" height="13" fill="#A3703E"/>
<rect x="306.147" y="67.9082" width="7" height="13" fill="#A3703E"/>
<rect x="515.147" y="67.8762" width="7" height="13" fill="#00A9D8"/>
<rect x="540.282" y="67.863" width="7" height="13" fill="#00A9D8"/>
<path d="M506.05 86.8762V80.8762H547.282V83.8762C547.282 85.5331 545.939 86.8762 544.282 86.8762H506.05Z" fill="#00A9D8"/>
<rect x="22.478" y="67.8762" width="7" height="13" fill="#41BC28"/>
<rect x="47.6072" y="67.8762" width="7" height="13" fill="#41BC28"/>
</svg>
