<svg width="512" height="92" viewBox="0 0 512 92" fill="none" xmlns="http://www.w3.org/2000/svg">
<path d="M5.57924 69.5048V20.5048H12.5792V69.5048H5.57924ZM22.4558 69.5048V34.2248H28.7558L29.1758 40.2448C30.2958 38.1448 31.8825 36.4881 33.9358 35.2748C35.9891 34.0148 38.3458 33.3848 41.0058 33.3848C43.8058 33.3848 46.2091 33.9448 48.2158 35.0648C50.2225 36.1848 51.7858 37.8881 52.9058 40.1748C54.0258 42.4148 54.5858 45.2381 54.5858 48.6448V69.5048H47.5858V49.3448C47.5858 46.0781 46.8625 43.6048 45.4158 41.9248C43.9691 40.2448 41.8691 39.4048 39.1158 39.4048C37.2958 39.4048 35.6625 39.8481 34.2158 40.7348C32.7691 41.5748 31.6025 42.8348 30.7158 44.5148C29.8758 46.1948 29.4558 48.2481 29.4558 50.6748V69.5048H22.4558ZM78.0998 69.5048C75.8598 69.5048 73.9231 69.1548 72.2898 68.4548C70.6565 67.7548 69.3965 66.5881 68.5098 64.9548C67.6231 63.3214 67.1798 61.1048 67.1798 58.3048V40.1748H61.0898V34.2248H67.1798L68.0198 25.4048H74.1798V34.2248H84.1898V40.1748H74.1798V58.3748C74.1798 60.3814 74.5998 61.7581 75.4398 62.5048C76.2798 63.2048 77.7265 63.5548 79.7798 63.5548H83.8398V69.5048H78.0998ZM91.9089 69.5048V34.2248H98.2089L98.8389 40.8748C99.6323 39.2881 100.659 37.9581 101.919 36.8848C103.179 35.7648 104.649 34.9014 106.329 34.2948C108.056 33.6881 110.016 33.3848 112.209 33.3848V40.8048H109.689C108.242 40.8048 106.866 40.9914 105.559 41.3648C104.252 41.6914 103.086 42.2748 102.059 43.1148C101.079 43.9548 100.309 45.0981 99.7489 46.5448C99.1889 47.9914 98.9089 49.7881 98.9089 51.9348V69.5048H91.9089ZM130.327 70.3448C127.434 70.3448 125.031 69.8548 123.117 68.8748C121.204 67.8948 119.781 66.5881 118.847 64.9548C117.914 63.2748 117.447 61.4781 117.447 59.5648C117.447 57.2314 118.054 55.2481 119.267 53.6148C120.481 51.9348 122.207 50.6514 124.447 49.7648C126.687 48.8781 129.371 48.4348 132.497 48.4348H141.667C141.667 46.3814 141.364 44.6781 140.757 43.3248C140.151 41.9714 139.241 40.9681 138.027 40.3148C136.861 39.6148 135.367 39.2648 133.547 39.2648C131.447 39.2648 129.651 39.7781 128.157 40.8048C126.664 41.7848 125.731 43.2548 125.357 45.2148H118.357C118.637 42.7414 119.477 40.6414 120.877 38.9148C122.324 37.1414 124.167 35.7881 126.407 34.8548C128.647 33.8748 131.027 33.3848 133.547 33.3848C136.861 33.3848 139.637 33.9681 141.877 35.1348C144.117 36.3014 145.797 37.9581 146.917 40.1048C148.084 42.2048 148.667 44.7248 148.667 47.6648V69.5048H142.577L142.017 63.5548C141.504 64.4881 140.897 65.3748 140.197 66.2148C139.497 67.0548 138.657 67.7781 137.677 68.3848C136.744 68.9914 135.647 69.4581 134.387 69.7848C133.174 70.1581 131.821 70.3448 130.327 70.3448ZM131.657 64.6748C133.151 64.6748 134.504 64.3714 135.717 63.7648C136.931 63.1581 137.957 62.3414 138.797 61.3148C139.684 60.2414 140.337 59.0514 140.757 57.7448C141.224 56.3914 141.481 55.0148 141.527 53.6148V53.4048H133.197C131.191 53.4048 129.557 53.6614 128.297 54.1748C127.084 54.6414 126.197 55.2948 125.637 56.1348C125.077 56.9748 124.797 57.9548 124.797 59.0748C124.797 60.2414 125.054 61.2448 125.567 62.0848C126.127 62.8781 126.921 63.5081 127.947 63.9748C128.974 64.4414 130.211 64.6748 131.657 64.6748Z" fill="#41BC28"/>
<path d="M173.912 70.3448C170.506 70.3448 167.472 69.5748 164.812 68.0348C162.152 66.4481 160.052 64.2781 158.512 61.5248C157.019 58.7714 156.272 55.5748 156.272 51.9348C156.272 48.2481 157.019 45.0281 158.512 42.2748C160.052 39.4748 162.152 37.3048 164.812 35.7648C167.472 34.1781 170.506 33.3848 173.912 33.3848C178.206 33.3848 181.799 34.5048 184.692 36.7448C187.586 38.9848 189.429 42.0181 190.222 45.8448H182.942C182.476 43.7914 181.402 42.2048 179.722 41.0848C178.089 39.9648 176.129 39.4048 173.842 39.4048C171.976 39.4048 170.249 39.8948 168.662 40.8748C167.076 41.8081 165.792 43.2081 164.812 45.0748C163.879 46.8948 163.412 49.1581 163.412 51.8648C163.412 53.8714 163.692 55.6681 164.252 57.2548C164.812 58.7948 165.559 60.1014 166.492 61.1748C167.472 62.2481 168.592 63.0648 169.852 63.6248C171.112 64.1381 172.442 64.3948 173.842 64.3948C175.382 64.3948 176.759 64.1614 177.972 63.6948C179.232 63.1814 180.282 62.4348 181.122 61.4548C182.009 60.4748 182.616 59.3081 182.942 57.9548H190.222C189.429 61.6881 187.586 64.6981 184.692 66.9848C181.799 69.2248 178.206 70.3448 173.912 70.3448ZM214.513 70.3448C211.199 70.3448 208.213 69.5748 205.553 68.0348C202.939 66.4948 200.863 64.3481 199.323 61.5948C197.829 58.7948 197.083 55.5748 197.083 51.9348C197.083 48.2014 197.853 44.9581 199.393 42.2048C200.933 39.4048 203.033 37.2348 205.693 35.6948C208.353 34.1548 211.339 33.3848 214.653 33.3848C218.013 33.3848 220.999 34.1548 223.613 35.6948C226.226 37.2348 228.28 39.3814 229.773 42.1348C231.313 44.8881 232.083 48.1314 232.083 51.8648C232.083 55.5981 231.313 58.8414 229.773 61.5948C228.28 64.3481 226.203 66.4948 223.543 68.0348C220.883 69.5748 217.873 70.3448 214.513 70.3448ZM214.513 64.3248C216.426 64.3248 218.153 63.8581 219.693 62.9248C221.279 61.9914 222.54 60.6148 223.473 58.7948C224.453 56.9281 224.943 54.6181 224.943 51.8648C224.943 49.1114 224.476 46.8248 223.543 45.0048C222.609 43.1381 221.349 41.7381 219.763 40.8048C218.223 39.8714 216.519 39.4048 214.653 39.4048C212.786 39.4048 211.059 39.8714 209.473 40.8048C207.886 41.7381 206.603 43.1381 205.623 45.0048C204.689 46.8248 204.223 49.1114 204.223 51.8648C204.223 54.6181 204.689 56.9281 205.623 58.7948C206.603 60.6148 207.863 61.9914 209.403 62.9248C210.989 63.8581 212.693 64.3248 214.513 64.3248ZM240.317 69.5048V34.2248H246.617L247.037 40.2448C248.157 38.1448 249.744 36.4881 251.797 35.2748C253.85 34.0148 256.207 33.3848 258.867 33.3848C261.667 33.3848 264.07 33.9448 266.077 35.0648C268.084 36.1848 269.647 37.8881 270.767 40.1748C271.887 42.4148 272.447 45.2381 272.447 48.6448V69.5048H265.447V49.3448C265.447 46.0781 264.724 43.6048 263.277 41.9248C261.83 40.2448 259.73 39.4048 256.977 39.4048C255.157 39.4048 253.524 39.8481 252.077 40.7348C250.63 41.5748 249.464 42.8348 248.577 44.5148C247.737 46.1948 247.317 48.2481 247.317 50.6748V69.5048H240.317ZM281.401 69.5048V34.2248H287.701L288.121 40.2448C289.241 38.1448 290.828 36.4881 292.881 35.2748C294.934 34.0148 297.291 33.3848 299.951 33.3848C302.751 33.3848 305.154 33.9448 307.161 35.0648C309.168 36.1848 310.731 37.8881 311.851 40.1748C312.971 42.4148 313.531 45.2381 313.531 48.6448V69.5048H306.531V49.3448C306.531 46.0781 305.808 43.6048 304.361 41.9248C302.914 40.2448 300.814 39.4048 298.061 39.4048C296.241 39.4048 294.608 39.8481 293.161 40.7348C291.714 41.5748 290.548 42.8348 289.661 44.5148C288.821 46.1948 288.401 48.2481 288.401 50.6748V69.5048H281.401ZM338.445 70.3448C335.085 70.3448 332.098 69.5748 329.485 68.0348C326.872 66.4948 324.818 64.3481 323.325 61.5948C321.878 58.8414 321.155 55.6448 321.155 52.0048C321.155 48.2714 321.878 45.0281 323.325 42.2748C324.818 39.4748 326.872 37.3048 329.485 35.7648C332.098 34.1781 335.132 33.3848 338.585 33.3848C342.038 33.3848 345.002 34.1548 347.475 35.6948C349.948 37.2348 351.862 39.2881 353.215 41.8548C354.568 44.3748 355.245 47.1748 355.245 50.2548C355.245 50.7214 355.222 51.2348 355.175 51.7948C355.175 52.3081 355.152 52.8914 355.105 53.5448H326.265V48.5748H348.245C348.105 45.6348 347.125 43.3481 345.305 41.7148C343.485 40.0348 341.222 39.1948 338.515 39.1948C336.602 39.1948 334.852 39.6381 333.265 40.5248C331.678 41.3648 330.395 42.6248 329.415 44.3048C328.482 45.9381 328.015 48.0148 328.015 50.5348V52.4948C328.015 55.1081 328.482 57.3248 329.415 59.1448C330.395 60.9181 331.678 62.2714 333.265 63.2048C334.852 64.0914 336.578 64.5348 338.445 64.5348C340.685 64.5348 342.528 64.0448 343.975 63.0648C345.422 62.0848 346.495 60.7548 347.195 59.0748H354.195C353.588 61.2214 352.562 63.1581 351.115 64.8848C349.668 66.5648 347.872 67.8948 345.725 68.8748C343.625 69.8548 341.198 70.3448 338.445 70.3448ZM379.332 70.3448C375.926 70.3448 372.892 69.5748 370.232 68.0348C367.572 66.4481 365.472 64.2781 363.932 61.5248C362.439 58.7714 361.692 55.5748 361.692 51.9348C361.692 48.2481 362.439 45.0281 363.932 42.2748C365.472 39.4748 367.572 37.3048 370.232 35.7648C372.892 34.1781 375.926 33.3848 379.332 33.3848C383.626 33.3848 387.219 34.5048 390.112 36.7448C393.006 38.9848 394.849 42.0181 395.642 45.8448H388.362C387.896 43.7914 386.822 42.2048 385.142 41.0848C383.509 39.9648 381.549 39.4048 379.262 39.4048C377.396 39.4048 375.669 39.8948 374.082 40.8748C372.496 41.8081 371.212 43.2081 370.232 45.0748C369.299 46.8948 368.832 49.1581 368.832 51.8648C368.832 53.8714 369.112 55.6681 369.672 57.2548C370.232 58.7948 370.979 60.1014 371.912 61.1748C372.892 62.2481 374.012 63.0648 375.272 63.6248C376.532 64.1381 377.862 64.3948 379.262 64.3948C380.802 64.3948 382.179 64.1614 383.392 63.6948C384.652 63.1814 385.702 62.4348 386.542 61.4548C387.429 60.4748 388.036 59.3081 388.362 57.9548H395.642C394.849 61.6881 393.006 64.6981 390.112 66.9848C387.219 69.2248 383.626 70.3448 379.332 70.3448ZM417.641 69.5048C415.401 69.5048 413.464 69.1548 411.831 68.4548C410.197 67.7548 408.937 66.5881 408.051 64.9548C407.164 63.3214 406.721 61.1048 406.721 58.3048V40.1748H400.631V34.2248H406.721L407.561 25.4048H413.721V34.2248H423.731V40.1748H413.721V58.3748C413.721 60.3814 414.141 61.7581 414.981 62.5048C415.821 63.2048 417.267 63.5548 419.321 63.5548H423.381V69.5048H417.641ZM446.453 70.3448C443.093 70.3448 440.106 69.5748 437.493 68.0348C434.88 66.4948 432.826 64.3481 431.333 61.5948C429.886 58.8414 429.163 55.6448 429.163 52.0048C429.163 48.2714 429.886 45.0281 431.333 42.2748C432.826 39.4748 434.88 37.3048 437.493 35.7648C440.106 34.1781 443.14 33.3848 446.593 33.3848C450.046 33.3848 453.01 34.1548 455.483 35.6948C457.956 37.2348 459.87 39.2881 461.223 41.8548C462.576 44.3748 463.253 47.1748 463.253 50.2548C463.253 50.7214 463.23 51.2348 463.183 51.7948C463.183 52.3081 463.16 52.8914 463.113 53.5448H434.273V48.5748H456.253C456.113 45.6348 455.133 43.3481 453.313 41.7148C451.493 40.0348 449.23 39.1948 446.523 39.1948C444.61 39.1948 442.86 39.6381 441.273 40.5248C439.686 41.3648 438.403 42.6248 437.423 44.3048C436.49 45.9381 436.023 48.0148 436.023 50.5348V52.4948C436.023 55.1081 436.49 57.3248 437.423 59.1448C438.403 60.9181 439.686 62.2714 441.273 63.2048C442.86 64.0914 444.586 64.5348 446.453 64.5348C448.693 64.5348 450.536 64.0448 451.983 63.0648C453.43 62.0848 454.503 60.7548 455.203 59.0748H462.203C461.596 61.2214 460.57 63.1581 459.123 64.8848C457.676 66.5648 455.88 67.8948 453.733 68.8748C451.633 69.8548 449.206 70.3448 446.453 70.3448ZM486.71 70.3448C483.35 70.3448 480.387 69.5514 477.82 67.9648C475.253 66.3314 473.247 64.1381 471.8 61.3848C470.4 58.5848 469.7 55.4114 469.7 51.8648C469.7 48.2714 470.4 45.0981 471.8 42.3448C473.247 39.5914 475.253 37.4214 477.82 35.8348C480.433 34.2014 483.42 33.3848 486.78 33.3848C489.533 33.3848 491.96 33.9448 494.06 35.0648C496.16 36.1381 497.793 37.6781 498.96 39.6848V19.1048H505.96V69.5048H499.66L498.96 64.0448C498.26 65.1181 497.35 66.1448 496.23 67.1248C495.11 68.0581 493.757 68.8281 492.17 69.4348C490.583 70.0414 488.763 70.3448 486.71 70.3448ZM487.83 64.2548C490.023 64.2548 491.96 63.7414 493.64 62.7148C495.32 61.6881 496.603 60.2414 497.49 58.3748C498.423 56.5081 498.89 54.3381 498.89 51.8648C498.89 49.3914 498.423 47.2448 497.49 45.4248C496.603 43.5581 495.32 42.1114 493.64 41.0848C491.96 40.0114 490.023 39.4748 487.83 39.4748C485.73 39.4748 483.84 40.0114 482.16 41.0848C480.48 42.1114 479.173 43.5581 478.24 45.4248C477.307 47.2448 476.84 49.3914 476.84 51.8648C476.84 54.3381 477.307 56.5081 478.24 58.3748C479.173 60.2414 480.48 61.6881 482.16 62.7148C483.84 63.7414 485.73 64.2548 487.83 64.2548Z" fill="#A3703E"/>
<path d="M78.696 80.5048H505.982V83.5048C505.982 85.1616 504.639 86.5048 502.982 86.5048H78.696V80.5048Z" fill="#A3703E"/>
<path d="M154.121 6.68884H410.693C412.35 6.68884 413.693 8.03199 413.693 9.68884V12.6888H154.121V6.68884Z" fill="#A3703E"/>
<rect x="22.4458" y="80.5048" width="131.675" height="6" fill="#41BC28"/>
<path d="M5.5896 9.50476C5.5896 7.84791 6.93275 6.50476 8.5896 6.50476H154.121V12.5048H5.5896V9.50476Z" fill="#41BC28"/>
<rect x="240.33" y="67.4728" width="7" height="13" fill="#A3703E"/>
<rect x="265.45" y="67.4728" width="7" height="13" fill="#A3703E"/>
<rect x="407.544" y="12.5439" width="6.14917" height="13.0164" fill="#A3703E"/>
<rect x="498.95" y="6.69336" width="7.00732" height="16.4816" rx="3" fill="#A3703E"/>
<rect x="476.271" y="6.69336" width="6" height="12.5082" rx="3" fill="#A3703E"/>
<rect x="476.271" y="12.6934" width="6" height="29.6873" rx="3" transform="rotate(-90 476.271 12.6934)" fill="#A3703E"/>
<rect x="68.0374" y="12.3964" width="6.14917" height="13.0164" fill="#41BC28"/>
<rect x="281.418" y="67.5048" width="7" height="13" fill="#A3703E"/>
<rect x="306.539" y="67.5048" width="7" height="13" fill="#A3703E"/>
<rect x="499.658" y="69.5048" width="6.32373" height="11" fill="#A3703E"/>
<rect x="22.4458" y="69.5048" width="7" height="13" fill="#41BC28"/>
<rect x="5.5896" y="9.50476" width="7" height="13" fill="#41BC28"/>
<rect x="47.575" y="69.5048" width="7" height="13" fill="#41BC28"/>
</svg>
