<svg width="30" height="31" viewBox="0 0 30 31" fill="none" xmlns="http://www.w3.org/2000/svg">
<rect width="4" height="30" rx="2" fill="black"/>
<rect width="4" height="30" rx="2" transform="matrix(0 -1 -1 0 30 31)" fill="black"/>
<rect x="30" y="31" width="4" height="30" rx="2" transform="rotate(180 30 31)" fill="black"/>
<rect width="4" height="30" rx="2" transform="matrix(0 1 1 0 0 0)" fill="black"/>
<rect width="6" height="10" rx="3" transform="matrix(0 -1 -1 0 20 12)" fill="black"/>
<rect width="4" height="9" rx="2" transform="matrix(0 -1 -1 0 14 24)" fill="black"/>
<rect width="4" height="9" rx="2" transform="matrix(0 -1 -1 0 25 24)" fill="black"/>
<rect width="4" height="10" rx="2" transform="matrix(1 0 0 -1 13 18)" fill="black"/>
<rect width="3" height="9" rx="1.5" transform="matrix(1 0 0 -1 8 24)" fill="black"/>
<rect width="3" height="9" rx="1.5" transform="matrix(1 0 0 -1 19 24)" fill="black"/>
<rect width="3" height="14" rx="1.5" transform="matrix(0 1 1 0 8 15)" fill="black"/>
</svg>
