<svg width="21" height="23" viewBox="0 0 21 23" fill="none" xmlns="http://www.w3.org/2000/svg">
<rect x="0.128906" y="22.576" width="1.47906" height="19.9907" rx="0.739532" transform="rotate(-90 0.128906 22.576)" fill="black"/>
<rect x="1.0293" y="19.1219" width="2" height="5.83447" rx="1" transform="rotate(-90 1.0293 19.1219)" fill="black"/>
<rect x="18.0308" y="4.5907" width="2" height="19.1362" rx="1" transform="rotate(45 18.0308 4.5907)" fill="black"/>
<rect x="14.376" y="3.76025" width="2" height="5.00524" rx="1" transform="rotate(-45 14.376 3.76025)" fill="black"/>
<rect width="2" height="5.83447" rx="1" transform="matrix(1 0 0 -1 1.03906 19.1019)" fill="black"/>
<rect width="2" height="19.1385" rx="1" transform="matrix(-0.707107 -0.707107 -0.707107 0.707107 15.5728 2.09784)" fill="black"/>
<rect width="2" height="5.00524" rx="1" transform="matrix(0.707107 -0.707107 -0.707107 -0.707107 16.3477 5.70142)" fill="black"/>
<rect x="11.6924" y="6.61053" width="2" height="5.00524" rx="1" transform="rotate(-45 11.6924 6.61053)" fill="black"/>
<rect width="2" height="5.00524" rx="1" transform="matrix(0.707107 -0.707107 -0.707107 -0.707107 13.6636 8.5517)" fill="black"/>
</svg>
