<svg width="45" height="61" viewBox="0 0 45 61" fill="none" xmlns="http://www.w3.org/2000/svg">
<rect width="4" height="45.8058" rx="2" transform="matrix(-0.996195 -0.0871557 -0.0871557 0.996195 43.9648 15.3656)" fill="black"/>
<rect x="0.725464" y="15.3656" width="4" height="45.8058" rx="2" transform="rotate(-5 0.725464 15.3656)" fill="black"/>
<rect width="4" height="35.259" rx="2" transform="matrix(0 -1 -1 0 39.9727 60.9971)" fill="black"/>
<rect width="4" height="42.761" rx="2" transform="matrix(0 -1 -1 0 43.6858 19.017)" fill="black"/>
<rect width="4" height="42.761" rx="2" transform="matrix(0 -1 -1 0 43.6858 13.1414)" fill="black"/>
<rect width="4" height="31.5305" rx="2" transform="matrix(0 -1 -1 0 38.0598 5.61237)" fill="black"/>
<rect width="4" height="13.3601" rx="2" transform="matrix(-0.804542 -0.593896 -0.593896 0.804542 11.2788 3.17371)" fill="black"/>
<rect x="33.332" y="3.17371" width="4" height="13.3601" rx="2" transform="rotate(-36.434 33.332 3.17371)" fill="black"/>
<rect x="11.026" y="24.8259" width="4" height="26.3623" rx="2" fill="black"/>
<rect x="20.3052" y="24.8259" width="4" height="26.3623" rx="2" fill="black"/>
<rect x="29.5847" y="24.8259" width="4" height="26.3623" rx="2" fill="black"/>
</svg>
