<svg xmlns="http://www.w3.org/2000/svg" width="1024" height="1024" viewBox="0 0 1024 1024">
<defs><pattern id="g" width="40" height="40" patternUnits="userSpaceOnUse">
<path d="M40 0H0V40" fill="none" stroke="rgba(0,0,0,0.065)" stroke-width="2"/></pattern></defs>
<rect width="1024" height="1024" fill="#E9F9E5"/><rect width="1024" height="1024" fill="url(#g)"/>
<rect x="132" y="132" width="780" height="780" rx="48" fill="black"/>
<rect x="100" y="100" width="780" height="780" rx="48" fill="#41BC28" stroke="black" stroke-width="16"/>
<rect x="270" y="170" width="440" height="440" rx="32" fill="#fff" stroke="black" stroke-width="14"/>
<g transform="translate(280,196) scale(3.5)"><g stroke-linejoin="round" stroke-linecap="round">
<rect x="23" y="56" width="80" height="50" rx="8" fill="#000"/>
<rect x="18" y="51" width="80" height="50" rx="8" fill="#41BC28" stroke="#000" stroke-width="4"/>
<circle cx="44" cy="74" r="5" fill="#000"/><circle cx="72" cy="74" r="5" fill="#000"/>
<path d="M46 86 Q58 95 70 86" fill="none" stroke="#000" stroke-width="4"/>
<g transform="rotate(-9 58 52)">
<path d="M34 54 L29 22 L46 36 L58 14 L70 36 L87 22 L82 54 Z" fill="#D4A000" stroke="#000" stroke-width="4"/>
<rect x="33" y="44" width="50" height="10" fill="#E8E879" stroke="#000" stroke-width="4"/>
<circle cx="29" cy="20" r="4.5" fill="#E8E879" stroke="#000" stroke-width="3"/>
<circle cx="58" cy="12" r="4.5" fill="#E8E879" stroke="#000" stroke-width="3"/>
<circle cx="87" cy="20" r="4.5" fill="#E8E879" stroke="#000" stroke-width="3"/></g></g></g>
<rect x="214" y="668" width="552" height="150" rx="30" fill="#E8E879" stroke="black" stroke-width="14"/>
<text x="490" y="768" text-anchor="middle" font-family="Arial Black, Arial, Helvetica, sans-serif" font-weight="900" font-size="88" letter-spacing="3" fill="black">LIFETIME</text>
<g transform="translate(795,185)"><circle r="68" fill="#E8E879" stroke="black" stroke-width="14"/><path d="M-46 0 C-46 -34 -12 -34 0 0 C12 34 46 34 46 0 C46 -34 12 -34 0 0 C-12 34 -46 34 -46 0 Z" fill="none" stroke="black" stroke-width="14" stroke-linejoin="round"/></g>
</svg>